<?xml version="1.0" encoding="utf-8"?>
<!-- Generator: Adobe Illustrator 26.0.1, SVG Export Plug-In . SVG Version: 6.00 Build 0)  -->
<svg version="1.1" id="Layer_1" xmlns="http://www.w3.org/2000/svg" xmlns:xlink="http://www.w3.org/1999/xlink" x="0px" y="0px"
	 viewBox="0 0 40 40" style="enable-background:new 0 0 40 40;" xml:space="preserve">
<path fill="#ffffff" d="M20,0c-1.4,0-2.5,1.1-2.5,2.5S18.6,5,20,5c1.4,0,2.5-1.1,2.5-2.5S21.4,0,20,0z M7.5,5C6.1,5,5,6.1,5,7.5S6.1,10,7.5,10
	S10,8.9,10,7.5S8.9,5,7.5,5z M32.5,5C31.1,5,30,6.1,30,7.5s1.1,2.5,2.5,2.5c1.4,0,2.5-1.1,2.5-2.5S33.9,5,32.5,5z M20,10
	c-5.5,0-10,4.5-10,10s4.5,10,10,10s10-4.5,10-10S25.5,10,20,10z M2.5,17.5C1.1,17.5,0,18.6,0,20c0,1.4,1.1,2.5,2.5,2.5S5,21.4,5,20
	C5,18.6,3.9,17.5,2.5,17.5z M37.5,17.5c-1.4,0-2.5,1.1-2.5,2.5c0,1.4,1.1,2.5,2.5,2.5S40,21.4,40,20C40,18.6,38.9,17.5,37.5,17.5z
	 M7.5,30C6.1,30,5,31.1,5,32.5C5,33.9,6.1,35,7.5,35s2.5-1.1,2.5-2.5C10,31.1,8.9,30,7.5,30z M32.5,30c-1.4,0-2.5,1.1-2.5,2.5
	c0,1.4,1.1,2.5,2.5,2.5c1.4,0,2.5-1.1,2.5-2.5C35,31.1,33.9,30,32.5,30z M20,35c-1.4,0-2.5,1.1-2.5,2.5S18.6,40,20,40
	c1.4,0,2.5-1.1,2.5-2.5S21.4,35,20,35z"/>
</svg>
